FFmpeg version SVN-r25716, Copyright (c) 2000-2010 the FFmpeg developers  built on Nov 10 2010 12:23:18 with gcc 4.1.2 20080704 (Red Hat 4.1.2-48)  configuration: --enable-libmp3lame --enable-shared --disable-mmx --arch=x86_64  libavutil     50.33. 0 / 50.33. 0  libavcore      0.12. 1 /  0.12. 1  libavcodec    52.94. 4 / 52.94. 4  libavformat   52.84. 0 / 52.84. 0  libavdevice   52. 2. 2 / 52. 2. 2  libavfilter    1.59. 0 /  1.59. 0  libswscale     0.12. 0 /  0.12. 0[mov,mp4,m4a,3gp,3g2,mj2 @ 0xe2434c0] max_analyze_duration reachedInput #0, mov,mp4,m4a,3gp,3g2,mj2, from '/RAID10/data/converted_video_files/35415.mov':  Duration: 00:00:35.00, start: 0.000000, bitrate: 394 kb/s    Stream #0.0(eng): Video: svq1, yuv410p, 512x371, 344 kb/s, 7.77 fps, 24 tbr, 24 tbn, 24 tbc    Stream #0.1(eng): Data: rtp  / 0x20707472, 49 kb/s[buffer @ 0xe245a30] w:512 h:371 pixfmt:yuv410p[ffsink @ 0xe245ca0] auto-inserting filter 'auto-inserted scaler 0' between the filter 'src' and the filter 'out'[scale @ 0xe268400] w:512 h:371 fmt:yuv410p -> w:512 h:371 fmt:yuv420p flags:0x4Output #0, flv, to '/RAID10/data/converted_video_files/35415.flv':  Metadata:    encoder         : Lavf52.84.0    Stream #0.0(eng): Video: flv, yuv420p, 512x371, q=2-31, 600 kb/s, 1k tbn, 24 tbcStream mapping:  Stream #0.0 -> #0.0Press [q] to stop encodingframe=   73 fps=  0 q=3.0 size=     495kB time=9.04 bitrate= 448.1kbits/s    frame=  140 fps=135 q=3.5 size=     944kB time=17.42 bitrate= 444.1kbits/s    frame=  204 fps=132 q=2.9 size=    1430kB time=25.42 bitrate= 460.9kbits/s    frame=  269 fps=132 q=2.7 size=    2008kB time=33.54 bitrate= 490.4kbits/s    frame=  272 fps=131 q=2.8 Lsize=    2026kB time=33.92 bitrate= 489.2kbits/s    video:2021kB audio:0kB global headers:0kB muxing overhead 0.220434%